<svg  xmlns="http://www.w3.org/2000/svg"  viewBox="0 0 24 24" width="144px" height="144px"><path d="M 4 1.25 C 2.4765 1.25 1.25 2.4765 1.25 4 L 1.25 8 C 1.25 9.5235 2.4765 10.75 4 10.75 L 8 10.75 C 9.5235 10.75 10.75 9.5235 10.75 8 L 10.75 4 C 10.75 2.4765 9.5235 1.25 8 1.25 L 4 1.25 z M 18 1.25 A 4.75 4.75 0 0 0 18 10.75 A 4.75 4.75 0 0 0 18 1.25 z M 4 13.25 C 2.4765 13.25 1.25 14.4765 1.25 16 L 1.25 20 C 1.25 21.5235 2.4765 22.75 4 22.75 L 8 22.75 C 9.5235 22.75 10.75 21.5235 10.75 20 L 10.75 16 C 10.75 14.4765 9.5235 13.25 8 13.25 L 4 13.25 z M 16 13.25 C 14.4765 13.25 13.25 14.4765 13.25 16 L 13.25 20 C 13.25 21.5235 14.4765 22.75 16 22.75 L 20 22.75 C 21.5235 22.75 22.75 21.5235 22.75 20 L 22.75 16 C 22.75 14.4765 21.5235 13.25 20 13.25 L 16 13.25 z"/></svg>
