<svg  xmlns="http://www.w3.org/2000/svg"  viewBox="0 0 48 48" width="144px" height="144px"><path d="M 21 3 C 19.343 3 18 4.343 18 6 L 18 8 L 12.5 8 C 10.032499 8 8 10.032499 8 12.5 L 8 18 L 6 18 C 4.343 18 3 19.343 3 21 L 3 27 C 3 28.657 4.343 30 6 30 L 8 30 L 8 35.5 C 8 37.967501 10.032499 40 12.5 40 L 18 40 L 18 42 C 18 43.657 19.343 45 21 45 L 27 45 C 28.657 45 30 43.657 30 42 L 30 40 L 35.5 40 C 37.967501 40 40 37.967501 40 35.5 L 40 30 L 42 30 C 43.657 30 45 28.657 45 27 L 45 21 C 45 19.343 43.657 18 42 18 L 40 18 L 40 12.5 C 40 10.032499 37.967501 8 35.5 8 L 30 8 L 30 6 C 30 4.343 28.657 3 27 3 L 21 3 z M 12.5 11 L 18 11 L 18 13 C 18 14.657 19.343 16 21 16 L 27 16 C 28.657 16 30 14.657 30 13 L 30 11 L 35.5 11 C 36.346499 11 37 11.653501 37 12.5 L 37 18 L 35 18 C 33.343 18 32 19.343 32 21 L 32 27 C 32 28.657 33.343 30 35 30 L 37 30 L 37 35.5 C 37 36.346499 36.346499 37 35.5 37 L 30 37 L 30 35 C 30 33.343 28.657 32 27 32 L 21 32 C 19.343 32 18 33.343 18 35 L 18 37 L 12.5 37 C 11.653501 37 11 36.346499 11 35.5 L 11 30 L 13 30 C 14.657 30 16 28.657 16 27 L 16 21 C 16 19.343 14.657 18 13 18 L 11 18 L 11 12.5 C 11 11.653501 11.653501 11 12.5 11 z"/></svg>
