<svg  xmlns="http://www.w3.org/2000/svg"  viewBox="0 0 27 27" width="144px" height="144px"><path d="M23.7805805 7.0239949h-.9742393c-.1029224-.3996248-.2614937-.7741952-.4667454-1.1209412l.6898651-.690393c.421978-.4219766.421978-1.1066337 0-1.5275552-.4219761-.4219763-1.1055775-.4219763-1.5275536 0l-.6887455.6892726C20.4660206 4.168335 20.0908566 4.0095 19.6905727 3.90605V2.9350424c0-.5970969-.4831638-1.0802599-1.0802612-1.0802599-.5970955 0-1.0802593.483163-1.0802593 1.0802599V3.90605C17.1299 4.0094342 16.7549343 4.1682687 16.4078579 4.3742461l-.6891394-.6891406c-.421977-.4219763-1.1055794-.4219763-1.5275555 0-.4219761.4219768-.4219761 1.1055787 0 1.5275552l.6900635.6900635c-.2053843.3468781-.3640203.7215137-.4669437 1.1212707h-.9731827c-.5970974 0-1.0802603.4831634-1.0802603 1.0802598 0 .5970974.4831629 1.0802603 1.0802603 1.0802603h.9745674c.1031208.399559.2614279.7740631.4666138 1.1207428l-.6911182.6905918c-.4219761.4209213-.4219761 1.1055784 0 1.5275545.4219656.4219656 1.105566.4219885 1.5275555 0l.6894045-.6888762c.3469429.2061749.7219086.3652735 1.1219292.4687233v.9712715c0 .5970964.4831638 1.0802593 1.0802593 1.0802593.5970974 0 1.0802612-.4831629 1.0802612-1.0802593v-.9712715c.4001522-.1035824.7751827-.2626143 1.1222591-.4689217l.6890755.6890745c.4219646.4219656 1.105566.4219885 1.5275536 0 .421978-.4219761.421978-1.1055784 0-1.5275545l-.6909199-.6909208c.2050533-.3466148.3632946-.7209864.4664154-1.1204138h.9756241c.5970955 0 1.0802593-.4831629 1.0802593-1.0802603C24.8608398 7.5071583 24.377676 7.0239949 23.7805805 7.0239949zM18.6103115 9.8835897c-.9791355 0-1.7758083-.799243-1.7758083-1.781806 0-.9791355.7966728-1.7758083 1.7758083-1.7758083.9791374 0 1.7758102.7966728 1.7758102 1.7758083C20.3861217 9.0843468 19.5894489 9.8835897 18.6103115 9.8835897zM24.4087219 19.2052155l-5.7399902 5.2200317c-.4500122.4599609-1.0799561.7199707-1.75.7199707H3.3087463c-.710022 0-1.289978-.5800171-1.2999878-1.289978l-.0100098-4.7600098c0-.7002964.5694964-1.2999878 1.289978-1.2999878h1.4200439c.4199829 0 .8299561-.1799927 1.1099854-.4900513l1.2000122-1.3199463c.4799805-.5200195 1.1499634-.8099976 1.8499756-.8099976h5.1199951c.960022 0 1.7299805.7699585 1.7299805 1.7299805 0 .9500122-.7699585 1.7299805-1.7299805 1.7299805h-1.9599609c-.5400391 0-.9800415.4400024-.9800415.9800415 0 .5299683.4400024.9699707.9800415.9699707h3.9199829c.3499756 0 .7000122-.1199951.9699707-.3499756l4.75-4.0100098c.7999878-.6799927 1.9800415-.6300049 2.7399902.1199951C25.198761 17.1352081 25.198761 18.4152374 24.4087219 19.2052155z"/></svg>
