<svg  xmlns="http://www.w3.org/2000/svg"  viewBox="0 0 48 48" width="144px" height="144px"><path d="M 12.5 4 C 10.019 4 8 6.019 8 8.5 L 8 39.5 C 8 41.981 10.019 44 12.5 44 L 27.632812 44 C 25.386813 41.664 24 38.496 24 35 C 24 27.821 29.820953 22 37.001953 22 C 38.035953 22 39.036 22.133328 40 22.361328 L 40 20 L 28.5 20 C 26.019 20 24 17.981 24 15.5 L 24 4 L 12.5 4 z M 27 4.8789062 L 27 15.5 C 27 16.327 27.673 17 28.5 17 L 39.121094 17 L 27 4.8789062 z M 37 24 C 36.413 24 35.838344 24.049531 35.277344 24.144531 L 34.931641 25.576172 C 34.394641 27.801172 32.105156 29.123609 29.910156 28.474609 L 28.705078 28.117188 C 27.981078 29.050187 27.401 30.110813 27 31.257812 L 27.894531 32.117188 C 29.529531 33.691187 29.529531 36.308813 27.894531 37.882812 L 27 38.742188 C 27.401 39.889187 27.980078 40.948812 28.705078 41.882812 L 29.910156 41.525391 C 32.105156 40.876391 34.394641 42.198828 34.931641 44.423828 L 35.277344 45.855469 C 35.838344 45.950469 36.414 46 37 46 C 37.587 46 38.161656 45.950469 38.722656 45.855469 L 39.068359 44.423828 C 39.605359 42.198828 41.894844 40.876391 44.089844 41.525391 L 45.294922 41.882812 C 46.018922 40.949813 46.599 39.889187 47 38.742188 L 46.105469 37.882812 C 44.470469 36.309812 44.470469 33.690188 46.105469 32.117188 L 47 31.257812 C 46.599 30.110813 46.019922 29.051187 45.294922 28.117188 L 44.089844 28.474609 C 41.894844 29.123609 39.605359 27.801172 39.068359 25.576172 L 38.722656 24.144531 C 38.161656 24.049531 37.587 24 37 24 z M 37 32 C 38.657 32 40 33.343 40 35 C 40 36.657 38.657 38 37 38 C 35.343 38 34 36.657 34 35 C 34 33.343 35.343 32 37 32 z"/></svg>
