<svg  xmlns="http://www.w3.org/2000/svg"  viewBox="0 0 4000 4000" width="144px" height="144px"><path d="M 1728.0508 641.36133 C 1653.2438 641.36133 1592.0508 702.58833 1592.0508 777.36133 L 1592.0508 993.58008 C 1548.5218 1009.9161 1506.3871 1030.3035 1465.5801 1053.4785 L 1296.9414 918.80664 C 1238.4374 872.58764 1152.7735 882.08389 1106.5215 940.58789 L 766.52148 1366.252 C 744.77348 1394.807 733.8828 1430.1333 737.9668 1465.5273 C 742.0508 1502.2503 761.10973 1534.8557 788.30273 1556.6367 L 956.94141 1691.2422 C 944.68941 1736.1332 933.83219 1781.0232 926.99219 1827.2422 L 716.21875 1876.25 C 642.77375 1892.586 596.52175 1966.0306 614.21875 2039.4766 L 735.24414 2569.8633 C 751.58014 2641.9143 823.66437 2688.1333 897.10938 2671.8633 L 1107.8828 2622.8555 C 1135.1098 2660.9725 1163.6634 2697.6953 1194.9414 2731.6953 L 1101.1094 2927.5273 C 1086.1344 2960.1323 1083.4121 2996.8555 1095.6641 3030.8555 C 1107.8831 3064.8555 1132.3872 3093.477 1164.9922 3108.418 L 1654.6055 3345.0234 C 1722.6055 3377.6954 1804.2184 3349.1406 1836.8574 3281.1406 L 1930.6895 3086.6367 C 1978.3025 3090.6877 2021.8321 3090.6877 2069.4121 3086.6367 L 2163.2441 3281.1406 C 2186.3871 3330.0816 2235.3281 3358.6367 2285.6641 3358.6367 C 2306.0511 3358.6367 2326.4371 3354.5854 2345.4961 3345.0234 L 2835.1094 3108.418 C 2867.7144 3093.477 2892.2185 3064.8555 2904.4375 3030.8555 C 2916.6895 2996.8555 2913.9662 2960.1323 2898.9922 2927.5273 L 2805.1602 2731.6953 C 2836.4372 2697.6953 2864.9917 2660.9725 2892.2188 2622.8555 L 3102.9922 2671.8633 C 3176.4372 2688.1333 3248.5214 2641.9143 3264.8574 2569.8633 L 3385.8828 2039.4766 C 3394.0498 2004.0836 3388.6041 1967.361 3369.5781 1936.084 C 3349.1581 1906.135 3319.2438 1884.42 3283.8828 1876.252 L 3073.1094 1827.2441 C 3066.3024 1781.0251 3055.4122 1736.1351 3043.1602 1691.2441 L 3211.832 1556.6387 C 3270.303 1510.4197 3279.8318 1424.69 3232.2188 1366.252 L 2893.5801 940.58789 C 2847.3281 882.08389 2761.6642 872.58764 2703.1602 918.80664 L 2534.5215 1053.4785 C 2493.7145 1030.3025 2451.5798 1009.9161 2408.0508 993.58008 L 2408.0508 777.36133 C 2408.0508 702.58833 2346.8578 641.36133 2272.0508 641.36133 L 1728.0508 641.36133 z M 2000.0508 1457.3613 C 2300.6058 1457.3613 2544.0508 1700.8063 2544.0508 2001.3613 C 2544.0508 2301.9163 2300.6058 2545.3613 2000.0508 2545.3613 C 1699.4958 2545.3613 1456.0508 2301.9163 1456.0508 2001.3613 C 1456.0508 1700.8063 1699.4958 1457.3613 2000.0508 1457.3613 z M 2000.0508 1729.3613 A 272 272 0 1 0 2000.0508 2273.3613 A 272 272 0 1 0 2000.0508 1729.3613 z"/></svg>
