<svg  xmlns="http://www.w3.org/2000/svg"  viewBox="0 0 512 512" width="144px" height="144px"><path d="M 55.917969 7.7460938 A 48.128 48.128 0 1 0 84.300781 95.099609 L 177.28906 188.08984 A 103.676 103.676 0 0 0 152.30078 248 L 103.19922 248 A 40 40 0 1 0 103.19922 264 L 152.30078 264 A 103.666 103.666 0 0 0 177.32031 323.93945 L 100.33984 400.03906 A 48.145 48.145 0 1 0 111.64062 411.36914 L 188.67969 335.19922 A 103.561 103.561 0 0 0 248 359.69922 L 248 408.81055 A 40 40 0 1 0 264 408.81055 L 264 359.69922 A 103.626 103.626 0 0 0 323.56055 335 L 416.90039 428.33008 A 47.976 47.976 0 1 0 456 408.11914 A 47.692 47.692 0 0 0 428.21094 417.01953 L 334.89062 323.68945 A 103.62 103.62 0 0 0 359.69922 264 L 376.80078 264 A 40 40 0 1 0 376.80078 248 L 359.69922 248 A 103.643 103.643 0 0 0 334.93945 188.36914 L 412.21094 111.09961 A 48.077 48.077 0 1 0 400.90039 99.789062 L 323.63086 177.06055 A 103.643 103.643 0 0 0 264 152.30078 L 264 135.18945 A 40 40 0 1 0 248 135.18945 L 248 152.30078 A 103.6 103.6 0 0 0 188.65039 176.82031 L 95.619141 83.789062 A 48.128 48.128 0 0 0 55.917969 7.7460938 z M 55.189453 24.027344 A 32 32 0 0 1 88.519531 56 A 32.036 32.036 0 0 1 56.519531 88 A 32 32 0 0 1 55.189453 24.027344 z M 440 40 A 32 32 0 1 1 408 72 A 32.042 32.042 0 0 1 440 40 z M 256.70117 72.009766 A 24 24 0 0 1 256 120 A 24.032 24.032 0 0 1 232 96 A 24 24 0 0 1 256.70117 72.009766 z M 259.77734 168.11719 A 87.982 87.982 0 0 1 256 344 A 87.681 87.681 0 0 1 195.41992 319.76953 A 8.438 8.438 0 0 0 194.33008 318.38086 A 8.065 8.065 0 0 0 192.82031 317.18945 A 87.837 87.837 0 0 1 192.53906 195.09961 A 8.21 8.21 0 0 0 194.28906 193.7793 A 8.032 8.032 0 0 0 195.58008 192.08008 A 87.982 87.982 0 0 1 259.77734 168.11719 z M 254.70703 200.00977 A 88.008 88.008 0 0 0 193.77539 225.77148 A 8 8 0 0 0 205.08398 237.08984 A 72.009 72.009 0 0 1 306.91602 237.08984 A 8 8 0 0 0 318.22461 225.77148 A 88.008 88.008 0 0 0 254.70703 200.00977 z M 416 232 A 24 24 0 1 1 392 256 A 24.032 24.032 0 0 1 416 232 z M 256.80078 232.00586 A 55.986 55.986 0 0 0 216.40039 248.41016 A 8 8 0 0 0 227.7207 259.71094 A 40 40 0 0 1 284.2793 259.71094 A 7.991 7.991 0 0 0 295.58984 259.7207 A 7.994 7.994 0 0 0 295.59961 248.41016 A 55.986 55.986 0 0 0 256.80078 232.00586 z M 63.001953 232.02148 A 24 24 0 0 1 88 256 A 24.032 24.032 0 0 1 64 280 A 24 24 0 0 1 63.001953 232.02148 z M 256 264 A 24 24 0 1 0 280 288 A 24.028 24.028 0 0 0 256 264 z M 255.66797 280.00781 A 8 8 0 0 1 264 288 A 8.009 8.009 0 0 1 256 296 A 8 8 0 0 1 255.66797 280.00781 z M 71.189453 407.14844 A 32 32 0 0 1 104.51953 439.11914 A 32.036 32.036 0 0 1 72.519531 471.11914 A 32 32 0 0 1 71.189453 407.14844 z M 256 424 A 24.032 24.032 0 0 1 280 448 A 24 24 0 1 1 256 424 z M 454.66992 424.14844 A 32 32 0 0 1 488 456.11914 A 32.042 32.042 0 0 1 456 488.11914 A 32 32 0 0 1 454.66992 424.14844 z"/></svg>
