<svg  xmlns="http://www.w3.org/2000/svg"  viewBox="0 0 26 26" width="144px" height="144px"><path d="M 13 3 C 8.417969 3 4.3125 4.765625 1.25 7.71875 C 0.65625 8.296875 0.640625 9.25 1.21875 9.84375 C 1.796875 10.4375 2.75 10.453125 3.34375 9.875 C 5.882813 7.429688 9.179688 6 13 6 C 16.820313 6 20.117188 7.429688 22.65625 9.875 C 23.25 10.453125 24.203125 10.4375 24.78125 9.84375 C 25.359375 9.25 25.34375 8.296875 24.75 7.71875 C 21.6875 4.765625 17.582031 3 13 3 Z M 13 8 C 9.6875 8 6.691406 9.371094 4.53125 11.53125 C 3.945313 12.117188 3.945313 13.070313 4.53125 13.65625 C 5.117188 14.242188 6.070313 14.242188 6.65625 13.65625 C 8.296875 12.015625 10.515625 11 13 11 C 15.484375 11 17.703125 12.015625 19.34375 13.65625 C 19.929688 14.242188 20.882813 14.242188 21.46875 13.65625 C 22.054688 13.070313 22.054688 12.117188 21.46875 11.53125 C 19.308594 9.371094 16.3125 8 13 8 Z M 13 13 C 10.960938 13 9.070313 13.863281 7.78125 15.28125 C 7.21875 15.894531 7.261719 16.84375 7.875 17.40625 C 8.488281 17.96875 9.4375 17.925781 10 17.3125 C 10.710938 16.53125 11.835938 16 13 16 C 14.164063 16 15.289063 16.53125 16 17.3125 C 16.5625 17.925781 17.511719 17.96875 18.125 17.40625 C 18.738281 16.84375 18.78125 15.894531 18.21875 15.28125 C 16.929688 13.863281 15.039063 13 13 13 Z M 13 18.1875 C 12.007813 18.1875 11.1875 19.007813 11.1875 20 C 11.1875 20.992188 12.007813 21.8125 13 21.8125 C 13.992188 21.8125 14.8125 20.992188 14.8125 20 C 14.8125 19.007813 13.992188 18.1875 13 18.1875 Z"/></svg>
